<?xml version="1.0" standalone="no"?>
<!DOCTYPE svg PUBLIC "-//W3C//DTD SVG 20010904//EN"
 "http://www.w3.org/TR/2001/REC-SVG-20010904/DTD/svg10.dtd">
<svg version="1.0" xmlns="http://www.w3.org/2000/svg"
 width="512.000000pt" height="512.000000pt" viewBox="0 0 512.000000 512.000000"
 preserveAspectRatio="xMidYMid meet">
<metadata>
Created by potrace 1.11, written by Peter Selinger 2001-2013
</metadata>
<g transform="translate(0.000000,512.000000) scale(0.100000,-0.100000)"
fill="#000000" stroke="none">
<path d="M2585 4664 c-66 -6 -160 -15 -210 -19 -49 -4 -93 -9 -97 -12 -5 -2
-8 1 -8 8 0 10 -3 10 -12 1 -7 -7 -35 -12 -62 -12 -50 0 -51 -1 -138 -87 l-88
-88 0 -217 c0 -168 -3 -218 -12 -218 -7 0 -53 -5 -103 -10 -49 -5 -124 -12
-165 -15 -41 -3 -95 -8 -120 -10 -80 -8 -163 -15 -242 -19 -43 -3 -81 -7 -85
-9 -5 -2 -57 -8 -118 -11 -60 -4 -113 -11 -118 -15 -4 -4 -9 -576 -10 -1272
-2 -695 -6 -1280 -10 -1299 -3 -19 -9 -57 -13 -85 -3 -27 -8 -58 -10 -68 -9
-52 -26 -174 -26 -189 1 -10 -2 -18 -6 -18 -4 0 -8 -18 -9 -40 -3 -81 -5 -95
-20 -119 -8 -13 -10 -20 -4 -17 7 5 10 -1 7 -16 -3 -13 -5 -31 -5 -41 -1 -11
-6 -15 -13 -11 -7 5 -8 3 -2 -7 13 -22 14 -41 0 -36 -7 3 -12 -4 -12 -19 0
-13 2 -21 5 -19 2 3 9 0 16 -5 8 -7 12 -5 12 5 0 8 -4 12 -8 9 -4 -2 -10 0
-14 6 -3 5 -1 10 5 10 14 0 72 -31 81 -43 3 -4 10 -7 15 -6 25 4 36 -2 29 -18
-5 -14 -3 -15 6 -6 9 9 17 8 35 -4 13 -8 24 -12 24 -8 0 5 8 1 18 -8 10 -10
22 -14 25 -10 4 3 7 -1 7 -11 0 -9 -5 -14 -10 -11 -5 3 -10 1 -10 -4 0 -6 6
-12 13 -12 6 -1 19 -3 27 -4 8 -1 21 -3 28 -4 7 0 10 -6 6 -13 -5 -7 -3 -8 6
-3 19 12 -18 37 -44 29 -17 -5 -19 -4 -9 6 10 10 18 10 42 0 17 -7 31 -17 31
-22 0 -5 4 -7 9 -4 4 3 17 -1 27 -10 18 -14 18 -14 -5 -4 -19 10 -22 9 -16 -1
6 -9 3 -11 -8 -6 -9 3 -19 3 -21 -2 -7 -10 55 -8 73 3 10 7 12 5 6 -4 -6 -10
-4 -12 8 -7 13 5 15 1 11 -22 -3 -16 -2 -31 4 -34 5 -4 7 4 5 17 -6 29 12 42
33 25 10 -8 12 -15 4 -23 -5 -5 -10 -14 -10 -19 0 -5 9 1 20 14 10 13 19 19
20 13 0 -6 -3 -14 -7 -18 -4 -3 -8 -14 -9 -22 -1 -9 1 -13 4 -9 4 4 7 12 7 18
1 7 7 11 14 9 7 -1 10 2 6 8 -3 6 10 3 29 -7 20 -9 36 -20 36 -23 0 -6 8 -8
43 -11 6 -1 34 2 61 5 27 3 57 1 68 -5 15 -8 19 -8 14 0 -8 12 -4 13 57 16 20
1 37 -2 37 -6 0 -13 29 -18 36 -7 4 6 3 8 -4 4 -6 -3 -13 -2 -17 4 -4 6 9 11
32 12 21 0 45 2 53 2 8 1 18 -3 22 -8 9 -13 48 -15 73 -4 16 7 15 7 -7 3 -20
-4 -26 -2 -22 8 3 8 18 13 37 12 18 -1 38 2 45 8 8 6 12 6 12 -1 0 -6 -9 -14
-20 -17 -24 -8 -26 -30 -4 -39 14 -5 15 -4 5 8 -10 12 -9 16 6 24 10 5 24 8
31 6 7 -1 8 0 2 3 -23 11 -7 19 35 17 25 -1 45 2 45 7 0 6 4 7 10 4 6 -3 0
-16 -13 -28 -13 -12 -15 -16 -6 -9 12 9 19 10 24 3 3 -6 12 -11 18 -11 9 0 8
3 -1 8 -7 5 -10 16 -7 24 6 16 28 18 41 5 11 -11 26 -8 19 3 -3 6 -1 10 4 10
6 0 11 -4 11 -10 0 -5 5 -10 11 -10 5 0 8 4 5 9 -3 5 1 11 9 15 8 3 17 0 21
-6 4 -7 3 -8 -4 -4 -7 4 -12 2 -12 -3 0 -16 20 -13 26 3 3 8 19 12 42 11 20
-1 43 3 51 9 12 9 13 8 9 -6 -9 -22 16 -56 27 -38 5 8 4 11 -2 7 -6 -4 -13 0
-17 8 -7 20 9 28 61 31 42 2 43 1 28 -16 -12 -14 -13 -20 -4 -26 7 -4 10 -3 6
3 -4 6 0 16 7 22 18 15 32 -4 17 -23 -8 -9 -7 -13 2 -13 15 0 20 34 6 42 -22
14 -5 21 43 19 29 -1 57 1 63 4 15 10 45 13 43 4 0 -4 4 -18 10 -32 6 -14 11
-18 11 -10 1 9 -4 21 -10 27 -8 8 -8 13 0 17 6 4 11 2 11 -3 0 -6 5 -11 11
-11 5 0 8 4 5 9 -9 15 22 21 33 7 12 -14 68 -19 75 -7 3 4 -11 6 -30 5 -19 -2
-34 1 -34 5 0 5 19 7 43 6 23 -1 47 1 52 4 18 10 86 8 82 -3 -4 -13 -30 -15
-38 -3 -4 6 -14 5 -24 0 -12 -7 -14 -13 -6 -17 6 -4 11 -1 11 6 1 8 6 6 15 -6
10 -13 15 -15 15 -6 0 9 6 8 22 -6 15 -12 18 -13 10 -3 -10 13 -9 19 3 29 8 7
13 15 11 19 -2 3 11 6 30 6 25 1 33 -3 29 -13 -3 -8 0 -10 7 -6 8 5 9 2 5 -9
-4 -10 -2 -17 4 -17 7 0 9 10 5 26 -5 17 -3 23 4 19 5 -3 16 -3 23 2 22 14 51
9 70 -11 9 -10 17 -15 17 -10 0 6 -6 16 -12 23 -11 10 -10 12 2 9 25 -5 30
-22 14 -48 l-15 -25 19 22 c11 12 22 20 25 17 3 -3 13 6 22 19 14 22 22 25 66
22 33 -2 47 0 43 7 -4 7 -2 8 5 4 18 -12 2 -27 -25 -22 -13 3 -24 1 -24 -3 0
-11 49 -11 56 0 7 11 24 12 24 1 0 -5 -9 -13 -20 -18 -20 -9 -20 -9 2 -23 21
-13 22 -13 9 2 -8 11 -9 17 -3 17 6 0 16 10 23 21 7 13 7 19 1 15 -6 -3 -13
-3 -16 2 -2 4 13 8 35 7 40 0 51 -8 23 -19 -22 -9 -26 -8 -18 6 5 7 3 8 -5 4
-17 -11 -5 -21 24 -21 14 -1 22 1 20 3 -2 3 0 13 6 23 11 22 54 20 54 -2 0 -8
8 -13 18 -11 12 2 15 -2 10 -15 -3 -10 -3 -15 1 -12 4 4 8 16 11 28 3 18 1 20
-15 11 -16 -9 -18 -8 -14 5 4 9 9 13 12 11 3 -3 12 0 20 7 13 9 14 9 8 -1 -4
-6 -3 -12 3 -12 5 0 13 5 16 10 4 7 16 3 33 -8 36 -25 62 -37 40 -19 -23 18
-23 28 -1 20 11 -4 14 -3 9 5 -5 8 -1 10 10 5 12 -4 15 -3 10 5 -5 8 -2 10 8
6 9 -3 16 -10 16 -16 0 -5 -4 -7 -8 -4 -4 2 -14 0 -22 -6 -12 -8 -11 -9 3 -4
15 5 17 2 12 -13 -3 -11 -1 -22 4 -26 7 -4 8 1 4 12 -6 16 -5 17 13 3 15 -11
16 -11 7 0 -17 19 -16 30 3 30 9 0 12 -5 8 -12 -5 -9 -2 -9 9 1 10 8 17 9 17
3 0 -6 -5 -14 -10 -17 -6 -3 -10 -12 -10 -18 0 -7 5 -4 11 7 9 15 13 16 20 5
5 -9 7 0 4 23 -3 25 0 38 10 42 8 3 17 0 21 -6 4 -7 9 -6 15 3 6 9 9 10 9 2 0
-12 18 -12 39 1 8 5 16 3 22 -5 7 -11 11 -10 24 6 10 13 14 15 13 5 -2 -8 -10
-20 -18 -26 -11 -9 -17 -8 -28 5 -10 12 -10 9 1 -9 12 -21 36 -28 30 -8 -2 4
6 10 17 13 11 4 18 10 16 14 -3 4 5 8 16 8 19 2 19 1 3 -18 -10 -10 -13 -19
-7 -19 6 0 12 5 14 11 3 9 9 9 25 1 16 -9 24 -8 36 6 9 9 16 20 16 25 1 4 4 6
9 5 4 -2 6 -6 5 -10 -2 -5 4 -8 13 -8 8 0 13 4 9 9 -3 5 0 13 6 17 8 4 9 3 5
-4 -4 -7 -2 -12 5 -12 8 0 8 -5 -2 -18 -13 -16 -13 -16 7 1 27 22 39 10 17
-17 -18 -21 -18 -21 4 -2 18 15 20 22 12 33 -7 7 -9 16 -5 20 3 4 13 -2 21
-13 14 -19 14 -19 11 2 -4 19 0 20 46 16 28 -2 48 0 45 5 -3 4 5 8 18 8 13 0
21 -3 18 -7 -2 -5 1 -8 7 -8 8 0 10 17 6 57 -14 125 -21 167 -31 183 -3 5 0
10 7 10 9 0 9 3 2 8 -6 4 -10 19 -10 35 1 15 -1 27 -4 27 -3 0 -7 10 -8 23 -6
79 -15 134 -25 143 -3 4 -2 15 4 25 5 11 6 19 1 19 -13 0 -12 52 2 70 9 13 9
13 -6 2 -16 -13 -17 -11 -14 22 1 20 -2 36 -7 36 -5 0 -3 8 4 17 10 11 10 14
2 9 -9 -5 -13 1 -14 21 -6 117 -4 160 5 172 8 11 8 13 -1 8 -15 -9 -15 103 1
122 7 10 8 13 0 8 -7 -4 -11 22 -10 88 0 56 4 91 10 88 5 -4 6 -1 0 8 -13 21
-13 239 0 231 8 -4 7 -1 0 9 -7 10 -11 282 -13 899 -1 486 -4 887 -7 891 -2 4
-39 10 -81 15 -43 4 -80 8 -83 9 -3 1 -43 5 -90 10 -47 5 -88 10 -92 11 -5 1
-12 2 -18 3 -6 1 -10 50 -10 127 0 69 -3 123 -7 121 -5 -3 -51 -8 -103 -11
-52 -4 -108 -9 -125 -11 -16 -2 -61 -7 -100 -10 -38 -3 -98 -8 -132 -11 -69
-7 -66 -9 -63 57 1 33 -5 42 -66 95 -37 32 -76 67 -87 78 -15 14 -30 17 -68
14 l-49 -5 0 83 c0 46 -3 84 -7 84 -5 1 -30 21 -58 46 -85 78 -109 94 -141 91
-16 -1 -83 -7 -149 -13z m176 -176 c0 -13 1 -47 2 -76 1 -28 0 -52 -3 -53 -22
-3 -58 -7 -139 -14 -51 -4 -101 -9 -110 -10 -9 -2 -35 -4 -58 -4 -39 -1 -47
-7 -131 -93 l-89 -91 2 -53 2 -52 -47 -4 -47 -3 0 208 c0 114 3 209 6 211 6 4
53 9 194 22 34 3 78 7 97 9 19 2 73 7 120 10 47 4 86 8 87 9 1 0 26 2 57 4 53
3 56 2 57 -20z m269 -327 l0 -49 -41 -4 c-22 -2 -42 -2 -45 1 -2 2 -4 26 -4
53 l0 48 45 0 45 0 0 -49z m-270 -20 c0 -42 -3 -49 -22 -54 -13 -4 -26 -1 -30
6 -6 9 -8 9 -8 -2 0 -9 -12 -12 -45 -9 -25 2 -45 0 -45 -4 0 -4 -8 -6 -17 -6
-10 1 -55 -2 -100 -6 l-82 -7 1 50 c0 31 4 51 11 52 7 0 23 2 37 4 14 1 72 6
130 10 58 4 107 9 109 11 2 2 17 4 33 4 27 0 28 -2 28 -49z m1189 -3527 c-12
-15 -36 -9 -36 10 0 8 9 11 24 8 18 -3 21 -7 12 -18z m-270 -8 c10 -12 9 -14
-6 -11 -10 2 -22 4 -28 4 -5 1 -3 6 5 11 19 12 15 12 29 -4z m-534 -56 c-5 -8
-11 -8 -17 -2 -6 6 -7 16 -3 22 5 8 11 8 17 2 6 -6 7 -16 3 -22z m-1255 -89
c0 -5 -7 -11 -14 -14 -10 -4 -13 -1 -9 9 6 15 23 19 23 5z"/>
<path d="M830 837 c0 -2 6 -10 14 -16 11 -9 16 -9 22 1 4 7 4 10 -1 6 -4 -4
-14 -3 -22 3 -7 6 -13 9 -13 6z"/>
<path d="M933 646 c0 -7 6 -13 14 -13 7 0 13 4 13 8 0 4 -6 9 -13 12 -8 3 -14
0 -14 -7z"/>
<path d="M991 634 c0 -11 3 -14 6 -6 3 7 2 16 -1 19 -3 4 -6 -2 -5 -13z"/>
<path d="M1030 620 c0 -5 5 -10 11 -10 8 0 7 -6 -2 -17 -13 -16 -12 -17 4 -4
13 10 15 17 6 27 -14 17 -19 18 -19 4z"/>
<path d="M4108 623 c7 -3 16 -2 19 1 4 3 -2 6 -13 5 -11 0 -14 -3 -6 -6z"/>
<path d="M3705 610 c-3 -5 2 -10 12 -11 10 0 13 -3 6 -6 -7 -2 -13 -9 -13 -15
0 -6 6 -6 15 2 12 10 18 10 30 0 9 -7 18 -10 22 -7 3 4 13 1 22 -5 12 -10 12
-7 -2 8 -9 11 -15 23 -12 26 3 2 -2 5 -10 5 -11 0 -12 -4 -4 -14 8 -9 8 -13 1
-13 -6 0 -16 8 -21 18 -6 9 -11 13 -11 8 0 -5 -6 -3 -14 3 -10 8 -16 9 -21 1z"/>
<path d="M1005 600 c3 -5 8 -10 11 -10 2 0 4 5 4 10 0 6 -5 10 -11 10 -5 0 -7
-4 -4 -10z"/>
<path d="M1065 590 c-16 -18 -16 -20 -1 -26 9 -3 14 -10 11 -14 -3 -5 -1 -11
4 -14 5 -4 8 1 7 10 -1 8 -8 19 -15 24 -10 6 -10 9 -1 15 7 4 16 1 21 -6 5 -8
9 -9 9 -4 0 6 -4 16 -8 23 -7 9 -13 8 -27 -8z"/>
<path d="M3962 598 c-15 -15 -15 -28 -1 -28 5 0 8 4 4 9 -3 6 3 14 12 20 10 6
13 11 8 11 -6 0 -16 -5 -23 -12z"/>
<path d="M3503 588 c-4 -7 -9 -22 -11 -33 -3 -20 -3 -20 13 0 9 12 18 16 22
10 5 -5 17 -11 28 -13 13 -1 8 4 -13 16 -18 10 -30 21 -26 25 4 4 5 7 1 7 -3
0 -9 -6 -14 -12z"/>
<path d="M3390 568 c0 -19 2 -20 10 -8 13 19 13 30 0 30 -5 0 -10 -10 -10 -22z"/>
<path d="M3854 582 c3 -5 0 -13 -6 -15 -9 -4 -10 -6 -1 -6 17 -1 25 16 12 25
-7 4 -9 3 -5 -4z"/>
<path d="M3881 558 l-22 -33 24 27 c14 15 28 24 33 20 4 -4 4 -1 0 6 -10 16
-9 17 -35 -20z"/>
<path d="M3173 550 c-1 -11 2 -18 8 -15 11 7 12 35 1 35 -4 0 -8 -9 -9 -20z"/>
<path d="M3411 554 c0 -11 3 -14 6 -6 3 7 2 16 -1 19 -3 4 -6 -2 -5 -13z"/>
<path d="M3730 560 c0 -5 5 -10 10 -10 6 0 10 5 10 10 0 6 -4 10 -10 10 -5 0
-10 -4 -10 -10z"/>
<path d="M3014 549 c-5 -9 3 -13 19 -10 5 1 6 -9 3 -21 -3 -13 -3 -17 0 -10 3
6 9 10 13 8 4 -3 7 4 6 16 -2 22 -30 34 -41 17z"/>
<path d="M3913 545 c0 -8 4 -12 9 -9 5 3 6 10 3 15 -9 13 -12 11 -12 -6z"/>
<path d="M3975 551 c-3 -5 -2 -12 3 -15 5 -3 9 1 9 9 0 17 -3 19 -12 6z"/>
<path d="M1015 540 c3 -5 8 -10 11 -10 2 0 4 5 4 10 0 6 -5 10 -11 10 -5 0 -7
-4 -4 -10z"/>
<path d="M1106 542 c-3 -5 1 -9 9 -9 8 0 12 4 9 9 -3 4 -7 8 -9 8 -2 0 -6 -4
-9 -8z"/>
<path d="M2927 536 c-21 -16 -22 -32 -1 -40 14 -5 15 -4 5 8 -10 11 -8 16 6
24 10 6 16 13 13 15 -3 3 -13 0 -23 -7z"/>
<path d="M3430 541 c0 -6 4 -12 8 -15 5 -3 9 1 9 9 0 8 -4 15 -9 15 -4 0 -8
-4 -8 -9z"/>
<path d="M3514 525 c0 -13 3 -22 7 -19 8 4 6 30 -2 38 -3 3 -5 -5 -5 -19z"/>
<path d="M3760 536 c-9 -11 -9 -19 0 -33 11 -17 11 -17 6 1 -4 10 -1 25 5 32
6 8 9 14 6 14 -2 0 -10 -7 -17 -14z"/>
<path d="M3828 543 c7 -3 16 -2 19 1 4 3 -2 6 -13 5 -11 0 -14 -3 -6 -6z"/>
<path d="M1153 527 c0 -8 6 -14 13 -14 7 0 10 6 7 14 -3 7 -8 13 -12 13 -4 0
-8 -6 -8 -13z"/>
<path d="M3213 523 c1 -21 2 -21 19 -6 21 19 24 31 4 14 -11 -9 -15 -9 -19 1
-3 7 -4 3 -4 -9z"/>
<path d="M3310 536 c0 -2 7 -9 15 -16 13 -11 14 -10 9 4 -5 14 -24 23 -24 12z"/>
<path d="M3403 522 c10 -10 14 -22 10 -27 -5 -4 -2 -5 5 -1 11 6 10 12 -4 27
-9 10 -19 19 -22 19 -3 0 2 -8 11 -18z"/>
<path d="M3705 520 c10 -11 20 -20 23 -20 3 0 -3 9 -13 20 -10 11 -20 20 -23
20 -3 0 3 -9 13 -20z"/>
<path d="M3150 521 c0 -6 4 -13 10 -16 6 -3 7 1 4 9 -7 18 -14 21 -14 7z"/>
<path d="M3590 525 c0 -7 30 -13 34 -7 3 4 -4 9 -15 9 -10 1 -19 0 -19 -2z"/>
<path d="M3660 526 c0 -2 8 -10 18 -17 15 -13 16 -12 3 4 -13 16 -21 21 -21
13z"/>
<path d="M2596 507 c3 -10 9 -15 12 -12 3 3 0 11 -7 18 -10 9 -11 8 -5 -6z"/>
<path d="M2693 495 c0 -8 4 -12 9 -9 5 3 6 10 3 15 -9 13 -12 11 -12 -6z"/>
<path d="M2788 503 c7 -3 16 -2 19 1 4 3 -2 6 -13 5 -11 0 -14 -3 -6 -6z"/>
<path d="M1313 485 c0 -8 4 -12 9 -9 4 3 8 9 8 15 0 5 -4 9 -8 9 -5 0 -9 -7
-9 -15z"/>
<path d="M2413 485 c-3 -9 -3 -18 -1 -21 3 -3 8 4 11 16 6 23 -1 27 -10 5z"/>
<path d="M2520 491 c0 -6 4 -13 10 -16 6 -3 7 1 4 9 -7 18 -14 21 -14 7z"/>
<path d="M2564 484 c-18 -14 -18 -15 4 -4 12 6 22 13 22 15 0 8 -5 6 -26 -11z"/>
<path d="M2815 489 c-4 -6 -5 -12 -2 -15 2 -3 7 2 10 11 7 17 1 20 -8 4z"/>
<path d="M3470 496 c0 -2 8 -10 18 -17 15 -13 16 -12 3 4 -13 16 -21 21 -21
13z"/>
<path d="M2259 473 c-6 -7 -8 -13 -3 -14 5 0 0 -5 -11 -10 l-20 -9 20 3 c11 1
20 9 20 17 0 8 5 15 12 15 6 0 14 3 17 6 3 3 -1 6 -9 6 -8 0 -20 -6 -26 -14z"/>
<path d="M2370 486 c0 -2 7 -7 16 -10 8 -3 12 -2 9 4 -6 10 -25 14 -25 6z"/>
<path d="M3136 478 c3 -5 10 -6 15 -3 13 9 11 12 -6 12 -8 0 -12 -4 -9 -9z"/>
<path d="M2135 471 c-6 -11 13 -26 22 -17 4 3 1 6 -6 6 -7 0 -9 5 -6 10 3 6 4
10 1 10 -3 0 -7 -4 -11 -9z"/>
<path d="M2320 471 c0 -6 4 -13 10 -16 6 -3 7 1 4 9 -7 18 -14 21 -14 7z"/>
<path d="M2299 468 c-7 -25 -4 -34 15 -35 19 -2 19 -1 3 8 -9 6 -15 14 -12 20
4 5 4 9 1 9 -3 0 -6 -1 -7 -2z"/>
<path d="M2169 443 c-13 -16 -12 -17 4 -4 16 13 21 21 13 21 -2 0 -10 -8 -17
-17z"/>
<path d="M2206 443 c-6 -14 -5 -15 5 -6 7 7 10 15 7 18 -3 3 -9 -2 -12 -12z"/>
<path d="M1816 437 c3 -10 9 -15 12 -12 3 3 0 11 -7 18 -10 9 -11 8 -5 -6z"/>
<path d="M2033 443 c4 -6 2 -13 -5 -15 -8 -3 -6 -6 4 -10 17 -7 19 15 3 29 -4
4 -5 3 -2 -4z"/>
<path d="M2590 439 c0 -5 5 -7 10 -4 6 3 10 8 10 11 0 2 -4 4 -10 4 -5 0 -10
-5 -10 -11z"/>
<path d="M1990 430 c0 -5 5 -10 11 -10 5 0 7 5 4 10 -3 6 -8 10 -11 10 -2 0
-4 -4 -4 -10z"/>
<path d="M1590 420 c0 -5 5 -10 11 -10 5 0 7 5 4 10 -3 6 -8 10 -11 10 -2 0
-4 -4 -4 -10z"/>
<path d="M1650 420 c0 -5 5 -10 11 -10 5 0 7 5 4 10 -3 6 -8 10 -11 10 -2 0
-4 -4 -4 -10z"/>
<path d="M1776 421 c-4 -5 3 -7 14 -4 23 6 26 13 6 13 -8 0 -17 -4 -20 -9z"/>
<path d="M2156 407 c3 -10 9 -15 12 -12 3 3 0 11 -7 18 -10 9 -11 8 -5 -6z"/>
<path d="M1356 402 c-3 -5 1 -9 9 -9 8 0 12 4 9 9 -3 4 -7 8 -9 8 -2 0 -6 -4
-9 -8z"/>
<path d="M1496 398 c3 -5 10 -6 15 -3 13 9 11 12 -6 12 -8 0 -12 -4 -9 -9z"/>
</g>
</svg>
